# xmcd
#
# Track frame offsets:
#	150
#	3144
#	8244
#	9366
#	10292
#	12931
#	15819
#	19148
#	24028
#	27211
#	29948
#
# Disc length: 433 seconds
#
# Revision: 1
# Processed by: cddbd v1.5.1PL2 Copyright (c) Steve Scherf et al.
# Submitted via: audiograbber 1.83.01
#
DISCID=6101af0b
DTITLE=Highway Brothers - Im Übungsraum
DYEAR=1997
DGENRE=Country
TTITLE0=Michas Visionen
TTITLE1=Schlagzeugsolo
TTITLE2=das kleine Arschloch
TTITLE3=Guido am Bass
TTITLE4=Good hearted woman
TTITLE5=Spandau Prison
TTITLE6=Terrible Country
TTITLE7=Lucky Lips
TTITLE8=Lonesome
TTITLE9=On the Road again
TTITLE10=Who'll stop the Rain
EXTD=
EXTT0=
EXTT1=
EXTT2=
EXTT3=
EXTT4=
EXTT5=
EXTT6=
EXTT7=
EXTT8=
EXTT9=
EXTT10=
PLAYORDER=
